<?xml version="1.0" encoding="utf-8"?>
<!-- Generator: Adobe Illustrator 17.0.0, SVG Export Plug-In . SVG Version: 6.00 Build 0)  -->
<!DOCTYPE svg PUBLIC "-//W3C//DTD SVG 1.1//EN" "http://www.w3.org/Graphics/SVG/1.1/DTD/svg11.dtd">
<svg version="1.1" id="Layer_1" xmlns="http://www.w3.org/2000/svg" xmlns:xlink="http://www.w3.org/1999/xlink" x="0px" y="0px"
	 width="65px" height="90px" viewBox="0 0 65 90" enable-background="new 0 0 65 90" xml:space="preserve">
<g>
	<path fill="#1B1B1B" d="M38,47H27H17H0v37.762C0,87.523,2.595,90,5.356,90H59.57c2.761,0,5.43-2.477,5.43-5.238V47H47H38z"/>
	<path fill="#1B1B1B" d="M59.57,0H5.356C2.595,0,0,2,0,4.762V45h17h10h11h9h18V4.762C65,2,62.332,0,59.57,0z"/>
	<g>
		<path fill="#E2E1DD" d="M43.377,17.637c-2.581-2.729-6.177-4.095-11.037-4.095c-4.86,0-8.736,1.365-11.315,4.095
			C18.444,20.367,17,24.282,17,29.382V45h10V28.752c0-2.279,0.631-3.885,1.562-4.815c0.93-0.93,2.257-1.395,3.819-1.395
			c1.56,0,3.049,0.465,3.979,1.395c0.93,0.931,1.64,2.536,1.64,4.815V45h9V29.382C47,24.282,45.956,20.367,43.377,17.637z"/>
		<path fill="#E2E1DD" d="M38,62.772c0,2.281-0.669,3.886-1.599,4.815c-0.931,0.931-2.276,1.395-3.836,1.395
			c-1.562,0-3.023-0.464-3.953-1.395C27.682,66.657,27,65.053,27,62.772V47H17v15.142c0,5.101,1.506,9.016,4.087,11.745
			c2.579,2.73,6.408,4.095,11.269,4.095c4.859,0,8.387-1.364,10.968-4.095C45.901,71.157,47,67.242,47,62.142V47h-9V62.772z"/>
	</g>
</g>
</svg>
