<?xml version="1.0" encoding="utf-8"?>
<!-- Generator: Adobe Illustrator 17.0.0, SVG Export Plug-In . SVG Version: 6.00 Build 0)  -->
<!DOCTYPE svg PUBLIC "-//W3C//DTD SVG 1.1//EN" "http://www.w3.org/Graphics/SVG/1.1/DTD/svg11.dtd">
<svg version="1.1" id="Layer_1" xmlns="http://www.w3.org/2000/svg" xmlns:xlink="http://www.w3.org/1999/xlink" x="0px" y="0px"
	 width="64px" height="90px" viewBox="0 0 64 90" enable-background="new 0 0 64 90" xml:space="preserve">
<g>
	<path fill="#1B1B1B" d="M59.061,0H4.847C2.086,0,0,2,0,4.762V45h29.667h10H64V4.762C64,2,61.822,0,59.061,0z"/>
	<path fill="#1B1B1B" d="M29.667,47H0v37.762C0,87.523,2.086,90,4.847,90h54.214C61.822,90,64,87.523,64,84.762V47H39.667H29.667z"
		/>
	<path fill="#E2E1DD" d="M33.07,14c-0.36,1-0.781,2.232-1.261,3.191c-0.48,0.961-1.11,1.866-1.89,2.586
		c-0.78,0.72-1.376,1.324-2.604,1.743C26.085,21.94,24,22.182,23,22.182V29h7v16h10V14H33.07z"/>
	<rect x="30" y="47" fill="#E2E1DD" width="10" height="30"/>
</g>
</svg>
