<?xml version="1.0" encoding="utf-8"?>
<!-- Generator: Adobe Illustrator 17.0.0, SVG Export Plug-In . SVG Version: 6.00 Build 0)  -->
<!DOCTYPE svg PUBLIC "-//W3C//DTD SVG 1.1//EN" "http://www.w3.org/Graphics/SVG/1.1/DTD/svg11.dtd">
<svg version="1.1" id="Layer_1" xmlns="http://www.w3.org/2000/svg" xmlns:xlink="http://www.w3.org/1999/xlink" x="0px" y="0px"
	 width="64px" height="90px" viewBox="0 0 64 90" enable-background="new 0 0 64 90" xml:space="preserve">
<g>
	<path fill="#1B1B1B" d="M58.647,0H4.433C1.671,0,0,2,0,4.762V45h30.835h10.997H64V4.762C64,2,61.408,0,58.647,0z"/>
	<path fill="#1B1B1B" d="M29.204,47H0v37.762C0,87.523,1.671,90,4.433,90h54.214C61.408,90,64,87.523,64,84.762V47H40.508H29.204z"
		/>
	<path fill="#E2E1DD" d="M26.59,49.857c-1.681,1.71-3.256,3.541-4.726,5.489c-1.471,1.951-2.575,4.096-3.534,6.436
		c-0.961,2.34-1.33,5.04-1.33,8.1V78h29v-9H26.68c-0.061-1-0.09-0.939-0.09-1.539c0-1.74,0.479-3.5,1.439-5.09
		c0.959-1.589,2.175-3.272,3.646-4.953c1.47-1.679,3.06-3.473,4.77-5.333c1.441-1.567,2.792-3.283,4.063-5.086H29.204
		C28.361,47.981,27.493,48.937,26.59,49.857z"/>
	<path fill="#E2E1DD" d="M46.3,29.742c0-5.1-1.246-9.015-3.735-11.745c-2.49-2.729-6.165-4.095-11.024-4.095
		c-4.86,0-8.426,1.365-10.915,4.095C18.135,20.727,17,24.642,17,29.742V36h9v-6.888c0-2.279,0.534-3.885,1.465-4.815
		c0.929-0.93,2.209-1.395,3.769-1.395c1.56,0,2.822,0.495,3.753,1.484c0.93,0.99,1.403,2.896,1.403,5.716
		c0,3.06-0.476,5.73-1.435,8.01c-0.961,2.28-2.174,4.38-3.643,6.3c-0.154,0.202-0.321,0.389-0.477,0.588h10.997
		c1.191-1.93,2.208-4.024,3.028-6.303C45.819,36.028,46.3,33.043,46.3,29.742z"/>
</g>
</svg>
