<?xml version="1.0" encoding="utf-8"?>
<!-- Generator: Adobe Illustrator 17.0.0, SVG Export Plug-In . SVG Version: 6.00 Build 0)  -->
<!DOCTYPE svg PUBLIC "-//W3C//DTD SVG 1.1//EN" "http://www.w3.org/Graphics/SVG/1.1/DTD/svg11.dtd">
<svg version="1.1" id="Layer_1" xmlns="http://www.w3.org/2000/svg" xmlns:xlink="http://www.w3.org/1999/xlink" x="0px" y="0px"
	 width="64px" height="90px" viewBox="0 0 64 90" enable-background="new 0 0 64 90" xml:space="preserve">
<g>
	<path fill="#1B1B1B" d="M27,47H0v37.762C0,87.523,2.388,90,5.149,90h54.214C62.125,90,64,87.523,64,84.762V47H43.29H27z"/>
	<path fill="#1B1B1B" d="M59.363,0H5.149C2.388,0,0,2,0,4.762V45h27h13.167H64V4.762C64,2,62.125,0,59.363,0z"/>
	<path fill="#E2E1DD" d="M47,31.002v-1.62c0-5.1-1.238-9.015-3.727-11.745c-2.49-2.729-6.161-4.095-11.02-4.095
		c-4.86,0-8.782,1.365-11.271,4.095C18.491,20.367,17,24.282,17,29.382V33h10v-4.248c0-2.279,0.392-3.885,1.324-4.815
		c0.929-0.93,2.138-1.395,3.698-1.395c1.56,0,2.729,0.495,3.659,1.484c0.93,0.99,1.319,2.896,1.319,5.716v3.51
		c0,2.52-0.467,5.305-1.516,6.264C34.433,40.477,33.035,41,31.177,41H27v4h13.167c-0.027-0.012-0.06-0.026-0.088-0.038
		C44.698,43.042,47,37.723,47,31.002z"/>
	<path fill="#E2E1DD" d="M27,50h3.637c2.279,0,3.871,0.556,4.892,1.756C36.548,52.957,37,53.983,37,56.922v4.95
		c0,2.82-0.407,4.711-1.336,5.67c-0.931,0.96-2.147,1.439-3.706,1.439c-1.561,0-2.719-0.464-3.648-1.395
		C27.378,66.657,27,65.053,27,62.772V57H17v5.142c0,5.101,1.493,9.016,3.983,11.745c2.489,2.73,6.289,4.095,11.149,4.095
		c4.859,0,8.588-1.364,11.078-4.095C45.7,71.157,47,67.242,47,62.142v-4.95c0-3.239-0.518-4.984-1.567-7.234
		c-0.53-1.135-1.24-2.12-2.143-2.957H27V50z"/>
</g>
</svg>
