<?xml version="1.0" encoding="utf-8"?>
<!-- Generator: Adobe Illustrator 17.0.0, SVG Export Plug-In . SVG Version: 6.00 Build 0)  -->
<!DOCTYPE svg PUBLIC "-//W3C//DTD SVG 1.1//EN" "http://www.w3.org/Graphics/SVG/1.1/DTD/svg11.dtd">
<svg version="1.1" id="Layer_1" xmlns="http://www.w3.org/2000/svg" xmlns:xlink="http://www.w3.org/1999/xlink" x="0px" y="0px"
	 width="64px" height="90px" viewBox="0 0 64 90" enable-background="new 0 0 64 90" xml:space="preserve">
<g>
	<path fill="#1B1B1B" d="M34.167,47h-5.668h-9.082H0v37.762C0,87.523,2.131,90,4.892,90h54.214C61.868,90,64,87.523,64,84.762V47
		H44.167H34.167z"/>
	<path fill="#1B1B1B" d="M59.107,0H4.892C2.131,0,0,2,0,4.762V45h20.262h9.081h4.824h10H64V4.762C64,2,61.868,0,59.107,0z"/>
	<polygon fill="#E2E1DD" points="33.259,14 20.262,45 29.343,45 34,33.162 34,45 44,45 44,14 	"/>
	<polygon fill="#E2E1DD" points="34,57 24.349,57 28.499,47 19.417,47 15,56.832 15,66 34,66 34,77 44,77 44,66 49,66 49,57 44,57 
		44,47 34,47 	"/>
</g>
</svg>
