<?xml version="1.0" encoding="utf-8"?>
<!-- Generator: Adobe Illustrator 17.0.0, SVG Export Plug-In . SVG Version: 6.00 Build 0)  -->
<!DOCTYPE svg PUBLIC "-//W3C//DTD SVG 1.1//EN" "http://www.w3.org/Graphics/SVG/1.1/DTD/svg11.dtd">
<svg version="1.1" id="Layer_1" xmlns="http://www.w3.org/2000/svg" xmlns:xlink="http://www.w3.org/1999/xlink" x="0px" y="0px"
	 width="64px" height="90px" viewBox="0 0 64 90" enable-background="new 0 0 64 90" xml:space="preserve">
<g>
	<path fill="#1B1B1B" d="M37.213,47H26.685h-9.348H0v37.762C0,87.523,2.132,90,4.894,90h54.214C61.869,90,64,87.523,64,84.762V47
		H46.319H37.213z"/>
	<path fill="#1B1B1B" d="M59.108,0H4.894C2.132,0,0,2,0,4.762V45h17.44h9.741h9.408h9.642H64V4.762C64,2,61.869,0,59.108,0z"/>
	<path fill="#E2E1DD" d="M36.674,33.342c-3.901,0-6.728,1.578-8.587,4.639L28.951,23H46v-9H20.041l-1.6,31h9.741
		c0.213-0.505,0.481-0.931,0.814-1.263c0.93-0.93,2.174-1.395,3.734-1.395c1.56,0,3.041,0.465,3.972,1.395
		c0.333,0.333,0.635,0.757,0.887,1.263h9.642c-0.244-3.351-0.977-6.015-2.43-7.968C42.971,34.573,40.332,33.342,36.674,33.342z"/>
	<path fill="#E2E1DD" d="M38,48.552v13.859c0,2.281-0.535,3.87-1.464,4.771c-0.931,0.899-2.211,1.35-3.77,1.35
		c-1.561,0-3.122-0.45-4.052-1.35C27.781,66.282,27,64.693,27,62.412V57h-9v4.782c0,5.101,1.365,9.016,3.855,11.745
		c2.489,2.73,6.225,4.095,11.086,4.095c4.859,0,8.184-1.364,10.674-4.095C46.104,70.798,47,66.883,47,61.782v-14.04
		c0-0.255,0.323-0.494,0.319-0.742h-9.106C38.29,47.477,38,47.994,38,48.552z"/>
</g>
</svg>
