<?xml version="1.0" encoding="utf-8"?>
<!-- Generator: Adobe Illustrator 17.0.0, SVG Export Plug-In . SVG Version: 6.00 Build 0)  -->
<!DOCTYPE svg PUBLIC "-//W3C//DTD SVG 1.1//EN" "http://www.w3.org/Graphics/SVG/1.1/DTD/svg11.dtd">
<svg version="1.1" id="Layer_1" xmlns="http://www.w3.org/2000/svg" xmlns:xlink="http://www.w3.org/1999/xlink" x="0px" y="0px"
	 width="64px" height="90px" viewBox="0 0 64 90" enable-background="new 0 0 64 90" xml:space="preserve">
<g>
	<path fill="#1B1B1B" d="M36.855,47h-8.249H17.5H0v37.762C0,87.523,2.862,90,5.624,90h54.214C62.599,90,64,87.523,64,84.762V47
		H47.444H36.855z"/>
	<path fill="#1B1B1B" d="M59.838,0H5.624C2.862,0,0,2,0,4.762V45h17.5h29.607H64V4.762C64,2,62.599,0,59.838,0z"/>
	<path fill="#E2E1DD" d="M36.426,36.162c-4.344,0-7.426,1.845-9.426,5.535V30.27c0-2.975,0.797-4.998,1.749-6.069
		c0.952-1.071,2.451-1.607,4.178-1.607c1.547,0,2.773,0.461,3.696,1.383C37.546,24.9,38,26.492,38,28.753V31h9v-1.622
		c0-5.058-1.005-8.941-3.474-11.649c-2.47-2.707-6-4.061-10.821-4.061c-5.119,0-9.252,1.383-11.691,4.15
		C18.574,20.585,17,24.617,17,29.914V45h30.107c-0.447-2.07-1.331-3.804-2.352-5.178C42.939,37.382,40.056,36.162,36.426,36.162z"/>
	<path fill="#E2E1DD" d="M37,51.248v11.247c0,2.263-0.052,3.839-0.974,4.732c-0.924,0.892-1.953,1.339-3.5,1.339
		c-1.548,0-3.002-0.447-3.924-1.339C27.679,66.334,27,64.758,27,62.495V51.248c0-1.882,0.967-3.293,1.606-4.248H17v14.871
		c0,5.059,1.691,8.942,4.25,11.649c2.558,2.708,6.454,4.061,11.275,4.061s8.293-1.353,10.853-4.061
		C45.936,70.813,47,66.93,47,61.871V50.445c0-1.227,0.571-2.372,0.444-3.445H36.855C37.494,47.955,37,49.366,37,51.248z"/>
</g>
</svg>
