<?xml version="1.0" encoding="utf-8"?>
<!-- Generator: Adobe Illustrator 17.0.0, SVG Export Plug-In . SVG Version: 6.00 Build 0)  -->
<!DOCTYPE svg PUBLIC "-//W3C//DTD SVG 1.1//EN" "http://www.w3.org/Graphics/SVG/1.1/DTD/svg11.dtd">
<svg version="1.1" id="Layer_1" xmlns="http://www.w3.org/2000/svg" xmlns:xlink="http://www.w3.org/1999/xlink" x="0px" y="0px"
	 width="64px" height="90px" viewBox="0 0 64 90" enable-background="new 0 0 64 90" xml:space="preserve">
<g>
	<path fill="#1B1B1B" d="M58.702,0H4.488C1.727,0,0,2,0,4.762V45h30.622h9.896H64V4.762C64,2,61.464,0,58.702,0z"/>
	<path fill="#1B1B1B" d="M30.086,47H0v37.762C0,87.523,1.727,90,4.488,90h54.214C61.464,90,64,87.523,64,84.762V47H39.982H30.086z"
		/>
	<polygon fill="#E2E1DD" points="21.966,77 31.865,77 39.982,47 30.086,47 	"/>
	<polygon fill="#E2E1DD" points="47,14 17,14 17,23 36.455,23 30.622,45 40.518,45 47,22.902 	"/>
</g>
</svg>
