<?xml version="1.0" encoding="utf-8"?>
<!-- Generator: Adobe Illustrator 17.0.0, SVG Export Plug-In . SVG Version: 6.00 Build 0)  -->
<!DOCTYPE svg PUBLIC "-//W3C//DTD SVG 1.1//EN" "http://www.w3.org/Graphics/SVG/1.1/DTD/svg11.dtd">
<svg version="1.1" id="Layer_1" xmlns="http://www.w3.org/2000/svg" xmlns:xlink="http://www.w3.org/1999/xlink" x="0px" y="0px"
	 width="64px" height="90px" viewBox="0 0 64 90" enable-background="new 0 0 64 90" xml:space="preserve">
<g>
	<path fill="#1B1B1B" d="M58.689,0H4.475C1.713,0,0,2,0,4.762V45h20.747h21.649H64V4.762C64,2,61.45,0,58.689,0z"/>
	<path fill="#1B1B1B" d="M20.791,47H0v37.762C0,87.523,1.713,90,4.475,90h54.214C61.45,90,64,87.523,64,84.762V47H42.372H20.791z"/>
	<path fill="#E2E1DD" d="M47,31.362v-1.979c0-5.1-1.29-9.015-3.929-11.745c-2.641-2.729-6.464-4.095-11.504-4.095
		s-8.924,1.365-11.564,4.095C17.362,20.367,16,24.282,16,29.382v1.979c0,5.437,1.65,10.863,4.747,13.638h21.649
		C45.506,42.19,47,36.758,47,31.362z M37,34.252c0,2.52-0.459,4.261-1.539,5.22c-1.08,0.961-2.36,1.44-3.919,1.44
		c-1.62,0-2.937-0.479-3.986-1.44c-1.051-0.959-1.556-2.7-1.556-5.22v-4.51c0-2.82,0.541-4.726,1.621-5.716
		c1.08-0.989,2.399-1.484,3.96-1.484c1.56,0,2.799,0.495,3.879,1.484c1.08,0.99,1.539,2.896,1.539,5.716V34.252z"/>
	<path fill="#E2E1DD" d="M17.491,51.227C16.53,53.477,16,56.132,16,59.192v2.95c0,5.101,1.37,9.016,4.011,11.745
		c2.64,2.73,6.506,4.095,11.546,4.095s8.861-1.364,11.501-4.095C45.698,71.157,47,67.242,47,62.142v-2.95
		c0-3.06-0.45-5.715-1.409-7.965c-0.733-1.716-1.789-3.121-3.219-4.227H20.791C19.36,48.105,18.223,49.511,17.491,51.227z
		 M27.485,52.577c0.99-1.11,2.355-1.665,4.096-1.665c1.739,0,3.024,0.555,4.014,1.665S37,55.502,37,58.022v3.851
		c0,2.82-0.535,4.711-1.584,5.67c-1.051,0.96-2.315,1.439-3.874,1.439c-1.562,0-2.861-0.479-3.941-1.439
		c-1.08-0.959-1.601-2.85-1.601-5.67v-3.851C26,55.502,26.496,53.688,27.485,52.577z"/>
</g>
</svg>
