<?xml version="1.0" encoding="utf-8"?>
<!-- Generator: Adobe Illustrator 17.0.0, SVG Export Plug-In . SVG Version: 6.00 Build 0)  -->
<!DOCTYPE svg PUBLIC "-//W3C//DTD SVG 1.1//EN" "http://www.w3.org/Graphics/SVG/1.1/DTD/svg11.dtd">
<svg version="1.1" id="Layer_1" xmlns="http://www.w3.org/2000/svg" xmlns:xlink="http://www.w3.org/1999/xlink" x="0px" y="0px"
	 width="64px" height="90px" viewBox="0 0 64 90" enable-background="new 0 0 64 90" xml:space="preserve">
<g>
	<path fill="#1B1B1B" d="M17.448,47H0v37.762C0,87.523,1.943,90,4.705,90h54.214C61.68,90,64,87.523,64,84.762V47H47H17.448z"/>
	<path fill="#1B1B1B" d="M58.919,0H4.705C1.943,0,0,2,0,4.762V45h17.067h11.125h7.238H47h17V4.762C64,2,61.68,0,58.919,0z"/>
	<path fill="#E2E1DD" d="M19.527,51.612c1.829,2.461,4.604,3.69,8.264,3.69c4.379,0,7.209-1.859,9.209-5.58v11.521
		c0,3-0.51,5.039-1.469,6.119c-0.961,1.08-2.325,1.62-4.065,1.62c-1.562,0-2.974-0.464-3.904-1.395
		C26.632,66.657,26,65.053,26,62.772V61h-9v1.142c0,5.101,1.225,9.016,3.716,11.745c2.488,2.73,6.155,4.095,11.015,4.095
		c5.16,0,9.044-1.395,11.505-4.185C45.695,71.007,47,66.943,47,61.602V47H17.448C17.906,48.823,18.597,50.362,19.527,51.612z"/>
	<path fill="#E2E1DD" d="M43.051,17.637c-2.58-2.729-6.339-4.095-11.2-4.095c-4.859,0-8.492,1.365-11.07,4.095
		C18.2,20.367,17,24.282,17,29.382v11.52c0,1.482-0.116,2.839,0.067,4.098h11.125c-0.037-0.034,0.079-0.058,0.044-0.094
		C27.305,43.978,27,42.373,27,40.092v-11.34c0-2.279,0.305-3.87,1.236-4.771c0.93-0.899,2.094-1.35,3.655-1.35
		c1.56,0,2.794,0.45,3.725,1.35c0.93,0.9,1.384,2.491,1.384,4.771v11.34c0,2.281-0.494,3.886-1.424,4.814
		c-0.036,0.036-0.109,0.059-0.145,0.094H47V29.382C47,24.282,45.63,20.367,43.051,17.637z"/>
</g>
</svg>
