<?xml version="1.0" encoding="utf-8"?>
<!-- Generator: Adobe Illustrator 17.0.0, SVG Export Plug-In . SVG Version: 6.00 Build 0)  -->
<!DOCTYPE svg PUBLIC "-//W3C//DTD SVG 1.1//EN" "http://www.w3.org/Graphics/SVG/1.1/DTD/svg11.dtd">
<svg version="1.1" id="Layer_1" xmlns="http://www.w3.org/2000/svg" xmlns:xlink="http://www.w3.org/1999/xlink" x="0px" y="0px"
	 width="19px" height="19px" viewBox="0 0 19 19" enable-background="new 0 0 19 19" xml:space="preserve">
<g>
	<rect x="10" y="10" fill="#BFBFBF" width="1" height="2"/>
	<rect x="8" y="7" fill="#BFBFBF" width="1" height="2"/>
	<path fill="#BFBFBF" d="M9.5,1C4.806,1,1,4.805,1,9.5S4.806,18,9.5,18S18,14.195,18,9.5S14.194,1,9.5,1z M12,7h-2v2h1v1h1v2h-1v1
		h-1v1H9v-1H7v-1h2v-2H8V9H7V7h1V6h1V5h1v1h2V7z"/>
</g>
</svg>
