<?xml version="1.0" encoding="utf-8"?>
<!-- Generator: Adobe Illustrator 17.0.0, SVG Export Plug-In . SVG Version: 6.00 Build 0)  -->
<!DOCTYPE svg PUBLIC "-//W3C//DTD SVG 1.1//EN" "http://www.w3.org/Graphics/SVG/1.1/DTD/svg11.dtd">
<svg version="1.1" id="Layer_1" xmlns="http://www.w3.org/2000/svg" xmlns:xlink="http://www.w3.org/1999/xlink" x="0px" y="0px"
	 width="24px" height="22px" viewBox="0 0 24 22" enable-background="new 0 0 24 22" xml:space="preserve">
<path fill="#EAEAEA" d="M19.215,2.268c0.037-0.751,0.061-1.268,0.061-1.268H4.725c0,0,0.026,0.517,0.066,1.268H1.333v0.976
	c0,0.093,0.007,2.298,0.643,4.539c1.146,4.039,3.369,4.942,5.068,4.972c1.16,1.45,2.59,2.029,3.666,2.201
	c0.078,0.028,0.154,0.054,0.227,0.077l-0.373,2.374c-1.002,0.21-1.782,0.633-2.122,1.155H6.247V21h9.365h2.194v-2.439h-2.194h-0.029
	c-0.34-0.523-1.12-0.945-2.122-1.155l-0.373-2.374c0.073-0.023,0.15-0.049,0.227-0.077c1.076-0.172,2.506-0.751,3.666-2.201
	c1.696-0.038,3.904-0.952,5.044-4.972c0.636-2.241,0.643-4.446,0.643-4.539V2.268H19.215z M3.828,7.274
	C3.504,6.146,3.362,4.999,3.299,4.219h1.599c0.088,1.533,0.191,3.138,0.258,3.634c0.132,0.978,0.343,1.827,0.609,2.563
	C4.928,9.894,4.278,8.845,3.828,7.274z M18.268,10.39c0.262-0.731,0.469-1.57,0.6-2.537c0.067-0.496,0.164-2.102,0.246-3.634h1.581
	C20.555,5.889,20.052,9.224,18.268,10.39z"/>
</svg>
