<?xml version="1.0" encoding="utf-8"?>
<!-- Generator: Adobe Illustrator 17.0.0, SVG Export Plug-In . SVG Version: 6.00 Build 0)  -->
<!DOCTYPE svg PUBLIC "-//W3C//DTD SVG 1.1//EN" "http://www.w3.org/Graphics/SVG/1.1/DTD/svg11.dtd">
<svg version="1.1" id="Layer_1" xmlns="http://www.w3.org/2000/svg" xmlns:xlink="http://www.w3.org/1999/xlink" x="0px" y="0px"
	 width="50px" height="50px" viewBox="0 0 50 50" enable-background="new 0 0 50 50" xml:space="preserve">
<g>
	<path fill="#1B1B1B" d="M44.269,20.421c-5.19,1.576-10.97,1.05-16.014-1.957c-4.884-2.912-8.167-7.602-9.527-12.826
		c-4.421,1.525-8.342,4.656-10.856,9.152c-2.514,4.496-3.18,9.568-2.248,14.284c5.061-1.396,10.636-0.806,15.521,2.106
		c5.044,3.007,8.375,7.912,9.648,13.342c4.616-1.46,8.73-4.653,11.334-9.31C44.731,30.554,45.353,25.278,44.269,20.421z"/>
	<path fill="#1B1B1B" d="M20.447,32.429c-4.562-2.72-9.771-3.266-14.496-1.953c1.34,4.971,4.491,9.426,9.161,12.21
		c4.514,2.691,9.627,3.331,14.334,2.209C28.264,39.822,25.157,35.237,20.447,32.429z"/>
	<path fill="#1B1B1B" d="M28.954,17.215c4.711,2.808,10.109,3.294,14.954,1.814c-1.412-4.771-4.506-9.023-9.019-11.714
		c-4.67-2.784-9.981-3.374-14.82-2.087C21.329,10.11,24.392,14.495,28.954,17.215z"/>
</g>
</svg>
