<?xml version="1.0" encoding="utf-8"?>
<!-- Generator: Adobe Illustrator 17.0.0, SVG Export Plug-In . SVG Version: 6.00 Build 0)  -->
<!DOCTYPE svg PUBLIC "-//W3C//DTD SVG 1.1//EN" "http://www.w3.org/Graphics/SVG/1.1/DTD/svg11.dtd">
<svg version="1.1" id="Layer_1" xmlns="http://www.w3.org/2000/svg" xmlns:xlink="http://www.w3.org/1999/xlink" x="0px" y="0px"
	 width="50px" height="50px" viewBox="0 0 50 50" enable-background="new 0 0 50 50" xml:space="preserve">
<g>
	<path fill="#1B1B1B" d="M30,32.299l1.32,0.564c0.326-0.8,0.699-1.589,1.129-2.361l-1.234-0.73l0.044-0.079
		c0.26-0.461,0.539-0.919,0.83-1.359l1.183,0.818c0.484-0.735,1.004-1.431,1.561-2.085l-1.07-0.959
		c0.345-0.404,0.706-0.798,1.075-1.171l1,1.035c0.612-0.622,1.257-1.2,1.932-1.732l-0.863-1.152
		c0.411-0.323,0.842-0.637,1.279-0.932l0.779,1.211c0.717-0.486,1.459-0.925,2.225-1.313l-0.622-1.294
		c0.467-0.236,0.949-0.457,1.431-0.658l0.529,1.334c0.623-0.262,1.259-0.487,1.904-0.686c-1.135-5.436-4.426-10.378-9.496-13.377
		c-5.07-2.998-10.894-3.447-16.057-1.736c0.154,0.671,0.282,1.348,0.372,2.031l1.392-0.197c0.071,0.529,0.125,1.066,0.159,1.599
		l-1.405,0.095c0.054,0.873,0.054,1.752,0.002,2.63l1.413,0.086c-0.031,0.535-0.081,1.074-0.149,1.6l-1.405-0.189
		c-0.112,0.865-0.279,1.726-0.499,2.58l1.375,0.369c-0.131,0.514-0.284,1.032-0.453,1.539l-1.346-0.47
		c-0.274,0.821-0.603,1.63-0.982,2.427l1.283,0.64c-0.227,0.478-0.474,0.954-0.734,1.416l-0.044,0.079l-1.234-0.73
		c-0.438,0.767-0.918,1.493-1.432,2.182l1.137,0.889c-0.318,0.426-0.652,0.843-0.994,1.241l-1.069-0.967
		c-0.571,0.662-1.181,1.277-1.819,1.852l0.947,1.1c-0.388,0.35-0.796,0.693-1.213,1.018l-0.864-1.164
		c-0.684,0.533-1.398,1.015-2.135,1.453l0.716,1.267c-0.449,0.266-0.914,0.52-1.383,0.754l-0.624-1.31
		c-0.671,0.336-1.362,0.629-2.062,0.889c1.329,5,4.509,9.486,9.236,12.281c4.727,2.796,10.109,3.374,15.001,2.053
		c-0.131-0.752-0.228-1.511-0.279-2.274l-1.42,0.102c-0.036-0.533-0.055-1.073-0.054-1.604l1.43,0.002
		c0.002-0.873,0.052-1.747,0.161-2.62l-1.416-0.185c0.066-0.532,0.151-1.065,0.254-1.585l1.403,0.29
		c0.167-0.853,0.382-1.702,0.656-2.539l-1.352-0.465C29.613,33.299,29.799,32.794,30,32.299z"/>
	<path fill="#1B1B1B" d="M44.676,22.184c-0.546,0.174-1.087,0.366-1.616,0.589l0.525,1.323c-0.39,0.162-0.779,0.341-1.157,0.532
		l-0.615-1.279c-0.713,0.362-1.404,0.771-2.071,1.223l0.762,1.184c-0.354,0.239-0.702,0.492-1.034,0.754l-0.841-1.123
		C38.001,25.882,37.4,26.421,36.83,27l0.969,1.004c-0.297,0.301-0.589,0.619-0.867,0.945l-1.036-0.929
		c-0.519,0.609-1.003,1.257-1.454,1.941l1.138,0.787c-0.235,0.357-0.462,0.728-0.673,1.103l-0.044,0.079l-1.19-0.704
		c-0.399,0.717-0.746,1.451-1.049,2.195l1.263,0.539c-0.163,0.401-0.313,0.81-0.446,1.216l-1.302-0.448
		c-0.255,0.78-0.456,1.57-0.611,2.365l1.341,0.277c-0.083,0.418-0.151,0.847-0.204,1.277l-1.361-0.177
		c-0.101,0.813-0.148,1.627-0.15,2.44l1.37,0.002c-0.001,0.429,0.014,0.866,0.044,1.297l-1.373,0.099
		c0.044,0.655,0.127,1.305,0.233,1.95c4.391-1.536,8.28-4.639,10.782-9.078C44.514,31.089,45.27,26.523,44.676,22.184z"/>
	<path fill="#1B1B1B" d="M6.67,26.891c0.379-0.19,0.756-0.395,1.118-0.61l0.687,1.215c0.686-0.408,1.351-0.857,1.988-1.353
		l-0.83-1.119c0.336-0.262,0.665-0.538,0.977-0.82l0.905,1.051c0.594-0.535,1.162-1.108,1.694-1.725L12.179,22.6
		c0.277-0.321,0.547-0.658,0.805-1.004l1.088,0.851c0.478-0.64,0.924-1.315,1.331-2.027l-1.19-0.704l0.044-0.079
		c0.211-0.374,0.411-0.761,0.596-1.148l1.234,0.616c0.353-0.742,0.659-1.496,0.915-2.26l-1.304-0.455
		c0.136-0.41,0.259-0.828,0.365-1.242l1.333,0.358c0.205-0.795,0.36-1.597,0.465-2.402l-1.37-0.185
		c0.055-0.425,0.095-0.861,0.12-1.294l1.382,0.084c0.049-0.818,0.049-1.636-0.001-2.449l-1.388,0.094
		c-0.028-0.43-0.071-0.865-0.129-1.292l1.382-0.196c-0.076-0.581-0.185-1.156-0.31-1.728c-3.966,1.642-7.448,4.596-9.752,8.685
		c-2.502,4.439-3.181,9.441-2.284,14.104c0.599-0.228,1.19-0.479,1.765-0.768L6.67,26.891z"/>
</g>
</svg>
