<?xml version="1.0" encoding="utf-8"?>
<!-- Generator: Adobe Illustrator 17.0.0, SVG Export Plug-In . SVG Version: 6.00 Build 0)  -->
<!DOCTYPE svg PUBLIC "-//W3C//DTD SVG 1.1//EN" "http://www.w3.org/Graphics/SVG/1.1/DTD/svg11.dtd">
<svg version="1.1" id="Layer_1" xmlns="http://www.w3.org/2000/svg" xmlns:xlink="http://www.w3.org/1999/xlink" x="0px" y="0px"
	 width="50px" height="50px" viewBox="0 0 50 50" enable-background="new 0 0 50 50" xml:space="preserve">
<g>
	<path fill="#1B1B1B" d="M19.889,10.871c-5.813,2.131-10.108,5.756-12.708,9.339l7.235,20.024c4.278,1.062,9.881,1.057,15.694-1.074
		c5.948-2.18,9.759-5.723,12.904-9.594L35.809,9.623C30.972,8.81,25.939,8.652,19.889,10.871z M32.371,25.254l-0.626-1.732
		l-3.439,1.261l0.626,1.732l-1.719,0.63l-0.626-1.732l-2.866,1.051l0.626,1.732l-1.719,0.63l-0.626-1.732l-3.439,1.261l0.626,1.732
		l-1.719,0.63l-0.626-1.732l-0.834-2.309l-0.626-1.732l1.719-0.63l0.626,1.732l3.439-1.261l-0.626-1.732l1.719-0.63l0.626,1.732
		l2.866-1.051l-0.626-1.732l1.719-0.63l0.626,1.732l3.439-1.261l-0.626-1.732l1.719-0.63l0.626,1.732l0.834,2.309l0.626,1.732
		L32.371,25.254z"/>
	<path fill="#1B1B1B" d="M1,33.814c0,0,3.15,3.154,9.059,5.136L4.662,24.014C1.4,29.358,1,33.814,1,33.814z"/>
	<path fill="#1B1B1B" d="M40.171,10.917l5.343,14.786C48.227,20.637,49,16.216,49,16.216S45.514,13.13,40.171,10.917z"/>
</g>
</svg>
