<?xml version="1.0" encoding="utf-8"?>
<!-- Generator: Adobe Illustrator 17.0.0, SVG Export Plug-In . SVG Version: 6.00 Build 0)  -->
<!DOCTYPE svg PUBLIC "-//W3C//DTD SVG 1.1//EN" "http://www.w3.org/Graphics/SVG/1.1/DTD/svg11.dtd">
<svg version="1.1" id="Layer_1" xmlns="http://www.w3.org/2000/svg" xmlns:xlink="http://www.w3.org/1999/xlink" x="0px" y="0px"
	 width="50px" height="50px" viewBox="0 0 50 50" enable-background="new 0 0 50 50" xml:space="preserve">
<g>
	<polygon fill="#1B1B1B" points="16.88,23.03 21.225,32.513 31.668,30.918 33.775,20.439 24.636,15.566 	"/>
	<path fill="#1B1B1B" d="M46.314,20.481c-0.32-1.672-0.823-3.312-1.512-4.904c-2.382-5.506-6.677-9.715-12.1-11.858
		c-9.726-3.832-20.478,0.133-25.898,8.903c-0.004,0.006-0.009,0.014-0.014,0.023c-0.045,0.071-0.088,0.145-0.133,0.216
		c-0.824,1.348-1.525,2.81-2.075,4.371c-2.005,5.688-1.764,11.844,0.675,17.341c2.438,5.495,6.784,9.673,12.237,11.764
		c5.459,2.089,11.367,1.839,16.641-0.704c3.809-1.836,6.953-4.711,9.165-8.307c0.851-1.382,1.559-2.875,2.117-4.453
		C46.838,28.846,47.13,24.58,46.314,20.481z M42.901,31.911c-0.067,0.185-0.136,0.363-0.207,0.545l-7.833,1.581l-1.355,8.679
		c-0.203,0.102-0.407,0.202-0.614,0.301c-2.852,1.343-5.906,1.924-8.946,1.74l-4.128-7.672l-8.695,1.445
		c-1.432-1.587-2.618-3.429-3.501-5.472c-0.523-1.209-0.926-2.452-1.206-3.715l6.486-6.602L9.11,13.9
		c2.004-3.102,4.775-5.5,7.939-7.005l6.835,4.189l5.703-5.424c0.677,0.176,1.352,0.386,2.021,0.644
		c2.268,0.871,4.315,2.151,6.074,3.772l-1.341,9.42l7.748,3.877C44.299,26.237,43.904,29.144,42.901,31.911z"/>
</g>
</svg>
