<?xml version="1.0" encoding="utf-8"?>
<!-- Generator: Adobe Illustrator 17.0.0, SVG Export Plug-In . SVG Version: 6.00 Build 0)  -->
<!DOCTYPE svg PUBLIC "-//W3C//DTD SVG 1.1//EN" "http://www.w3.org/Graphics/SVG/1.1/DTD/svg11.dtd">
<svg version="1.1" id="Layer_1" xmlns="http://www.w3.org/2000/svg" xmlns:xlink="http://www.w3.org/1999/xlink" x="0px" y="0px"
	 width="50px" height="50px" viewBox="0 0 50 50" enable-background="new 0 0 50 50" xml:space="preserve">
<g>
	<path fill="#1B1B1B" d="M45.552,19.041l-13.72,5.175c2.412,5.418,6.933,9.268,12.163,10.867
		C46.373,30.269,47.049,24.57,45.552,19.041z"/>
	<path fill="#1B1B1B" d="M20.001,28.68L5.562,34.126c2.347,5.384,6.57,9.374,11.562,11.43C20.364,40.781,21.562,34.622,20.001,28.68
		z"/>
	<path fill="#1B1B1B" d="M21.067,25.744l2.784-1.05L16.788,4.581c-4.023,1.734-7.28,4.617-9.545,8.143
		C13.335,14.576,18.55,19.211,21.067,25.744z"/>
	<path fill="#1B1B1B" d="M6.217,14.498c-2.691,5.174-3.389,11.429-1.488,17.409l14.54-5.485
		C16.904,20.344,11.952,16.078,6.217,14.498z"/>
	<path fill="#1B1B1B" d="M30.028,24.897l-3.232,1.219l6.729,19.161c4.035-1.818,7.277-4.8,9.492-8.422
		C37.41,35.008,32.596,30.787,30.028,24.897z"/>
	<path fill="#1B1B1B" d="M29.194,22.678c-2.07-6.513-1.056-13.35,2.255-18.763c-3.944-1.299-8.277-1.424-12.495-0.128l7.056,20.093
		L29.194,22.678z"/>
	<path fill="#1B1B1B" d="M21.805,27.999c1.732,6.392,0.557,13.015-2.794,18.232c3.922,1.192,8.205,1.231,12.363-0.12l-6.736-19.18
		L21.805,27.999z"/>
	<path fill="#1B1B1B" d="M30.994,21.999l13.82-5.213c-2.193-5.691-6.433-9.941-11.517-12.166
		C30.115,9.589,29.093,15.953,30.994,21.999z"/>
</g>
</svg>
