<?xml version="1.0" encoding="utf-8"?>
<!-- Generator: Adobe Illustrator 17.0.0, SVG Export Plug-In . SVG Version: 6.00 Build 0)  -->
<!DOCTYPE svg PUBLIC "-//W3C//DTD SVG 1.1//EN" "http://www.w3.org/Graphics/SVG/1.1/DTD/svg11.dtd">
<svg version="1.1" id="Layer_1" xmlns="http://www.w3.org/2000/svg" xmlns:xlink="http://www.w3.org/1999/xlink" x="0px" y="0px"
	 width="38px" height="38px" viewBox="0 0 38 38" enable-background="new 0 0 38 38" xml:space="preserve">
<path fill="#BFBFBF" d="M8.291,22.872c0,0,4.562,7.81,7.574,9.073c3.012,1.263,18.052-4.504,19.818-9.972
	c1.766-5.469-6.117-17.886-10.027-18.387s-9.222,3.282-13.562,8.29c0,0,0.7-3.533,5.729-7.463c0,0-2.349-3.382-6.134-0.319
	C7.904,7.157,4.495,14.058,6.13,17.983c0,0-4.681,2.691-4,5.402c0.443,1.763,5.206,11.631,7.215,11.795
	c2.009,0.164,5.45-2.047,5.45-2.047S9.948,29.245,8.291,22.872z"/>
</svg>
