<?xml version="1.0" encoding="utf-8"?>
<!-- Generator: Adobe Illustrator 17.0.0, SVG Export Plug-In . SVG Version: 6.00 Build 0)  -->
<!DOCTYPE svg PUBLIC "-//W3C//DTD SVG 1.1//EN" "http://www.w3.org/Graphics/SVG/1.1/DTD/svg11.dtd">
<svg version="1.1" id="Layer_1" xmlns="http://www.w3.org/2000/svg" xmlns:xlink="http://www.w3.org/1999/xlink" x="0px" y="0px"
	 width="38px" height="38px" viewBox="0 0 38 38" enable-background="new 0 0 38 38" xml:space="preserve">
<g>
	<path fill="#BFBFBF" d="M22.689,24.204l0.974,0.402c0.24-0.571,0.516-1.133,0.833-1.683l-0.91-0.52l0.033-0.056
		c0.192-0.329,0.398-0.655,0.612-0.969l0.873,0.583c0.357-0.524,0.741-1.02,1.152-1.486l-0.789-0.684
		c0.254-0.288,0.521-0.569,0.793-0.835l0.738,0.738c0.452-0.444,0.928-0.856,1.426-1.235l-0.636-0.821
		c0.303-0.23,0.621-0.454,0.943-0.665l0.575,0.863c0.529-0.346,1.077-0.659,1.642-0.936l-0.459-0.923
		c0.345-0.168,0.7-0.326,1.056-0.469l0.391,0.951c0.46-0.187,0.929-0.347,1.405-0.489c-0.838-3.876-3.266-7.399-7.006-9.537
		c-3.741-2.138-8.038-2.458-11.848-1.238c0.114,0.478,0.208,0.961,0.275,1.448l1.027-0.141c0.053,0.377,0.092,0.76,0.117,1.14
		l-1.037,0.068c0.04,0.623,0.04,1.249,0.001,1.875l1.043,0.061c-0.023,0.382-0.06,0.766-0.11,1.141l-1.037-0.135
		c-0.083,0.616-0.206,1.231-0.368,1.84l1.015,0.263c-0.097,0.366-0.209,0.736-0.334,1.098l-0.993-0.335
		c-0.202,0.585-0.445,1.163-0.724,1.73l0.946,0.457c-0.168,0.341-0.35,0.68-0.542,1.009L13.73,16.77l-0.91-0.52
		c-0.323,0.547-0.677,1.064-1.057,1.556l0.839,0.634c-0.234,0.304-0.481,0.601-0.734,0.885l-0.789-0.689
		c-0.422,0.472-0.871,0.911-1.342,1.32l0.698,0.784c-0.286,0.25-0.588,0.494-0.895,0.726l-0.638-0.83
		c-0.504,0.38-1.031,0.724-1.575,1.036l0.529,0.904c-0.331,0.19-0.675,0.371-1.021,0.538l-0.46-0.934
		c-0.495,0.24-1.005,0.449-1.522,0.634c0.981,3.565,3.327,6.763,6.815,8.756c3.488,1.993,7.459,2.406,11.068,1.464
		c-0.096-0.536-0.168-1.077-0.206-1.622l-1.048,0.073c-0.027-0.38-0.04-0.765-0.04-1.144l1.055,0.001
		c0.001-0.622,0.039-1.246,0.119-1.868l-1.045-0.131c0.049-0.379,0.112-0.76,0.187-1.13l1.036,0.207
		c0.123-0.608,0.282-1.213,0.484-1.81l-0.997-0.331C22.404,24.917,22.541,24.557,22.689,24.204z"/>
	<path fill="#BFBFBF" d="M33.517,16.992c-0.403,0.124-0.802,0.261-1.193,0.42l0.388,0.944c-0.288,0.116-0.575,0.243-0.853,0.379
		l-0.454-0.912c-0.526,0.258-1.036,0.55-1.528,0.872l0.562,0.844c-0.261,0.17-0.518,0.351-0.763,0.537l-0.621-0.801
		c-0.464,0.353-0.907,0.737-1.327,1.15l0.715,0.715c-0.219,0.214-0.435,0.441-0.64,0.674l-0.765-0.662
		c-0.383,0.434-0.74,0.896-1.073,1.384l0.84,0.561c-0.174,0.255-0.341,0.519-0.497,0.786l-0.033,0.056l-0.878-0.502
		c-0.295,0.511-0.551,1.034-0.774,1.565l0.932,0.385c-0.12,0.286-0.231,0.578-0.329,0.867l-0.961-0.319
		c-0.189,0.556-0.336,1.12-0.451,1.686l0.99,0.198c-0.061,0.298-0.111,0.604-0.151,0.91l-1.004-0.126
		c-0.075,0.579-0.109,1.16-0.111,1.74l1.011,0.001c0,0.306,0.01,0.617,0.032,0.924l-1.013,0.07c0.032,0.467,0.094,0.93,0.172,1.391
		c3.24-1.095,6.109-3.307,7.955-6.473C33.398,23.341,33.956,20.086,33.517,16.992z"/>
	<path fill="#BFBFBF" d="M5.476,20.348c0.28-0.135,0.558-0.281,0.825-0.435l0.507,0.866c0.506-0.291,0.997-0.611,1.467-0.965
		l-0.613-0.798c0.248-0.187,0.491-0.383,0.721-0.584l0.667,0.749c0.438-0.382,0.857-0.79,1.25-1.23L9.54,17.289
		c0.204-0.229,0.404-0.469,0.594-0.716l0.803,0.607c0.352-0.456,0.682-0.937,0.982-1.445l-0.878-0.502l0.033-0.056
		c0.156-0.267,0.304-0.542,0.439-0.819l0.911,0.439c0.261-0.529,0.487-1.066,0.675-1.612l-0.962-0.324
		c0.1-0.292,0.191-0.59,0.269-0.885l0.983,0.255c0.151-0.567,0.265-1.139,0.343-1.713l-1.011-0.132
		c0.04-0.303,0.07-0.614,0.089-0.923l1.02,0.06c0.036-0.583,0.036-1.167-0.001-1.746l-1.024,0.067
		c-0.021-0.307-0.052-0.617-0.095-0.921l1.019-0.14c-0.056-0.414-0.136-0.825-0.229-1.232c-2.926,1.171-5.495,3.277-7.195,6.192
		C4.457,14.909,3.956,18.475,4.618,21.8c0.442-0.163,0.878-0.342,1.302-0.548L5.476,20.348z"/>
</g>
</svg>
