<?xml version="1.0" encoding="utf-8"?>
<!-- Generator: Adobe Illustrator 17.0.0, SVG Export Plug-In . SVG Version: 6.00 Build 0)  -->
<!DOCTYPE svg PUBLIC "-//W3C//DTD SVG 1.1//EN" "http://www.w3.org/Graphics/SVG/1.1/DTD/svg11.dtd">
<svg version="1.1" id="Layer_1" xmlns="http://www.w3.org/2000/svg" xmlns:xlink="http://www.w3.org/1999/xlink" x="0px" y="0px"
	 width="38px" height="38px" viewBox="0 0 38 38" enable-background="new 0 0 38 38" xml:space="preserve">
<g>
	<path fill="#BFBFBF" d="M15.273,8.611c-4.239,1.567-7.371,4.232-9.266,6.866L11.283,30.2c3.119,0.781,7.205,0.777,11.444-0.79
		c4.337-1.603,7.116-4.208,9.409-7.054L26.882,7.694C23.354,7.096,19.685,6.981,15.273,8.611z M24.374,19.187l-0.456-1.273
		l-2.508,0.927l0.456,1.273l-1.254,0.464l-0.456-1.273l-2.089,0.772l0.456,1.273l-1.254,0.464l-0.456-1.273l-2.507,0.927
		l0.456,1.273l-1.254,0.463l-0.456-1.273l-0.609-1.698l-0.456-1.273l1.254-0.464l0.456,1.273l2.507-0.927l-0.456-1.273l1.254-0.463
		l0.456,1.273l2.09-0.772l-0.456-1.273l1.254-0.464l0.456,1.273l2.507-0.927l-0.456-1.273l1.254-0.463l0.456,1.273l0.609,1.698
		l0.456,1.273L24.374,19.187z"/>
	<path fill="#BFBFBF" d="M1.5,25.48c0,0,2.297,2.319,6.605,3.776L4.17,18.275C1.792,22.204,1.5,25.48,1.5,25.48z"/>
	<path fill="#BFBFBF" d="M30.062,8.645l3.896,10.871c1.979-3.724,2.542-6.975,2.542-6.975S33.958,10.273,30.062,8.645z"/>
</g>
</svg>
