<?xml version="1.0" encoding="utf-8"?>
<!-- Generator: Adobe Illustrator 17.0.0, SVG Export Plug-In . SVG Version: 6.00 Build 0)  -->
<!DOCTYPE svg PUBLIC "-//W3C//DTD SVG 1.1//EN" "http://www.w3.org/Graphics/SVG/1.1/DTD/svg11.dtd">
<svg version="1.1" id="Layer_1" xmlns="http://www.w3.org/2000/svg" xmlns:xlink="http://www.w3.org/1999/xlink" x="0px" y="0px"
	 width="38px" height="38px" viewBox="0 0 38 38" enable-background="new 0 0 38 38" xml:space="preserve">
<g>
	<polygon fill="#BFBFBF" points="13.113,17.539 16.263,24.572 23.834,23.389 25.361,15.617 18.736,12.003 	"/>
	<path fill="#BFBFBF" d="M34.452,15.649c-0.232-1.24-0.597-2.457-1.096-3.638c-1.727-4.084-4.841-7.205-8.772-8.795
		C17.533,0.375,9.739,3.316,5.809,9.82c-0.003,0.004-0.007,0.01-0.01,0.017C5.767,9.89,5.735,9.944,5.703,9.997
		c-0.597,1-1.105,2.084-1.504,3.242C2.745,17.457,2.92,22.023,4.688,26.1c1.767,4.075,4.918,7.174,8.871,8.725
		c3.957,1.549,8.241,1.364,12.064-0.522c2.761-1.362,5.04-3.494,6.644-6.161c0.617-1.025,1.13-2.132,1.534-3.303
		C34.832,21.852,35.043,18.688,34.452,15.649z M31.977,24.125c-0.048,0.137-0.099,0.27-0.15,0.404l-5.679,1.173l-0.982,6.437
		c-0.147,0.076-0.295,0.15-0.445,0.223c-2.068,0.996-4.282,1.427-6.485,1.291l-2.993-5.69l-6.304,1.071
		c-1.038-1.177-1.898-2.543-2.538-4.058c-0.379-0.897-0.671-1.819-0.875-2.755l4.702-4.896l-2.748-6.557
		c1.453-2.301,3.462-4.08,5.755-5.195l4.955,3.107l4.134-4.023c0.491,0.131,0.98,0.286,1.465,0.478
		c1.644,0.646,3.128,1.596,4.403,2.798l-0.972,6.987l5.617,2.875C32.99,19.918,32.704,22.073,31.977,24.125z"/>
</g>
</svg>
