<?xml version="1.0" encoding="utf-8"?>
<!-- Generator: Adobe Illustrator 17.0.0, SVG Export Plug-In . SVG Version: 6.00 Build 0)  -->
<!DOCTYPE svg PUBLIC "-//W3C//DTD SVG 1.1//EN" "http://www.w3.org/Graphics/SVG/1.1/DTD/svg11.dtd">
<svg version="1.1" id="Layer_1" xmlns="http://www.w3.org/2000/svg" xmlns:xlink="http://www.w3.org/1999/xlink" x="0px" y="0px"
	 width="38px" height="38px" viewBox="0 0 38 38" enable-background="new 0 0 38 38" xml:space="preserve">
<g>
	<path fill="#BFBFBF" d="M33.899,14.581l-9.946,3.838c1.748,4.018,5.026,6.873,8.817,8.059
		C34.495,22.907,34.985,18.681,33.899,14.581z"/>
	<path fill="#BFBFBF" d="M15.376,21.729l-10.468,4.04c1.702,3.993,4.763,6.952,8.382,8.477
		C15.639,30.704,16.508,26.136,15.376,21.729z"/>
	<path fill="#BFBFBF" d="M16.149,19.552l2.018-0.779l-5.12-14.917c-2.916,1.286-5.277,3.424-6.92,6.04
		C10.543,11.269,14.324,14.706,16.149,19.552z"/>
	<path fill="#BFBFBF" d="M5.383,11.211c-1.951,3.838-2.457,8.476-1.079,12.912l10.541-4.068
		C13.131,15.547,9.541,12.383,5.383,11.211z"/>
	<path fill="#BFBFBF" d="M22.645,18.924l-2.343,0.904l4.878,14.211c2.925-1.348,5.275-3.56,6.881-6.247
		C27.996,26.422,24.507,23.292,22.645,18.924z"/>
	<path fill="#BFBFBF" d="M22.041,17.278c-1.5-4.83-0.766-9.902,1.635-13.916c-2.859-0.964-6.001-1.056-9.058-0.095l5.115,14.902
		L22.041,17.278z"/>
	<path fill="#BFBFBF" d="M16.684,21.224c1.255,4.741,0.404,9.653-2.026,13.522c2.844,0.884,5.948,0.913,8.962-0.089l-4.883-14.225
		L16.684,21.224z"/>
	<path fill="#BFBFBF" d="M23.345,16.774l10.019-3.867c-1.59-4.221-4.664-7.373-8.349-9.023C22.708,7.57,21.967,12.29,23.345,16.774z
		"/>
</g>
</svg>
