<?xml version="1.0" encoding="utf-8"?>
<!-- Generator: Adobe Illustrator 17.0.0, SVG Export Plug-In . SVG Version: 6.00 Build 0)  -->
<!DOCTYPE svg PUBLIC "-//W3C//DTD SVG 1.1//EN" "http://www.w3.org/Graphics/SVG/1.1/DTD/svg11.dtd">
<svg version="1.1" id="Layer_1" xmlns="http://www.w3.org/2000/svg" xmlns:xlink="http://www.w3.org/1999/xlink" x="0px" y="0px"
	 width="38px" height="38px" viewBox="0 0 38 38" enable-background="new 0 0 38 38" xml:space="preserve">
<g>
	<path fill="#BFBFBF" d="M33.217,15.735c-3.83,1.124-8.094,0.749-11.815-1.396c-3.604-2.076-6.026-5.42-7.029-9.145
		c-3.262,1.087-6.155,3.32-8.01,6.525c-1.855,3.206-2.346,6.822-1.659,10.184c3.734-0.996,7.848-0.575,11.452,1.502
		c3.722,2.144,6.179,5.641,7.119,9.512c3.406-1.041,6.441-3.317,8.362-6.638C33.558,22.96,34.017,19.198,33.217,15.735z"/>
	<path fill="#BFBFBF" d="M15.641,24.297c-3.366-1.939-7.21-2.329-10.696-1.392c0.989,3.544,3.313,6.72,6.759,8.705
		c3.33,1.919,7.103,2.375,10.576,1.575C21.409,29.568,19.116,26.299,15.641,24.297z"/>
	<path fill="#BFBFBF" d="M21.917,13.449c3.476,2.002,7.459,2.349,11.034,1.293c-1.042-3.401-3.324-6.433-6.655-8.352
		c-3.445-1.985-7.364-2.406-10.935-1.488C16.291,8.383,18.551,11.51,21.917,13.449z"/>
</g>
</svg>
