<?xml version="1.0" encoding="utf-8"?>
<!-- Generator: Adobe Illustrator 17.0.0, SVG Export Plug-In . SVG Version: 6.00 Build 0)  -->
<!DOCTYPE svg PUBLIC "-//W3C//DTD SVG 1.1//EN" "http://www.w3.org/Graphics/SVG/1.1/DTD/svg11.dtd">
<svg version="1.1" id="Layer_1" xmlns="http://www.w3.org/2000/svg" xmlns:xlink="http://www.w3.org/1999/xlink" x="0px" y="0px"
	 width="19px" height="19px" viewBox="0 0 19 19" enable-background="new 0 0 19 19" xml:space="preserve">
<rect x="7.866" y="9.375" fill="#BFBFBF" width="1" height="2"/>
<rect x="9.866" y="12.375" fill="#BFBFBF" width="1" height="2"/>
<path fill="#BFBFBF" d="M11.872,4.871c-0.139-0.07-0.481-0.339-0.362-0.725l0.084-0.137c0.569-0.668,1.983-1.302,2.437-2.021
	c0.224-0.281,0.29-0.572,0.061-0.886c-0.255-0.349-0.699-0.477-1.213-0.477c-1.411,0-3.353,0.963-3.379,0.963
	c-0.026,0-1.967-0.963-3.379-0.963c-0.515,0-0.958,0.128-1.214,0.477C4.678,1.416,4.745,1.707,4.968,1.988
	c0.455,0.719,1.868,1.353,2.437,2.021L7.49,4.146C7.609,4.532,7.267,4.8,7.128,4.871C4.509,6.19,1.526,9.175,1.526,12.948
	c0,5.486,0,5.427,7.411,5.427c0.183,0,0.371,0,0.563,0c0.192,0,0.38,0,0.563,0c7.413,0,7.412,0.06,7.412-5.427
	C17.474,9.175,14.491,6.19,11.872,4.871z M11.866,9.375h-2v2h1v1h1v2h-1v1h-1v1h-1v-1h-2v-1h2v-2h-1v-1h-1v-2h1v-1h1v-1h1v1h2V9.375
	z"/>
</svg>
